<svg width="1069" height="844" viewBox="0 0 1069 844" fill="none" xmlns="http://www.w3.org/2000/svg">
<g filter="url(#filter0_d_4140_78)">
<path d="M1049.33 585.158L742.141 388.152C716.327 417.494 689.627 446.469 663.025 473.319C647.642 488.845 632.29 503.663 617.159 517.431L639.616 585.158H1049.33ZM1049.33 585.158L1050.3 585.78L1050 586.158H1050.64L761.165 951.721L760.977 951.153L760.839 951.328L759.044 948.502L760.101 951.69H759.884L760.201 952.19H528.537H528.037H527.537H295.872M109.013 129.145C120.133 144.705 367.095 488.838 527.203 585.158M528.871 585.158C688.979 488.838 935.941 144.706 947.061 129.145M109.578 128.692C126.676 130.386 369.58 155.84 527.557 249.963M528.517 249.963C686.494 155.84 929.397 130.386 946.495 128.692M945.637 128.276C945.3 128.31 944.917 128.349 944.488 128.394C942.574 128.592 939.746 128.896 936.089 129.317C928.776 130.16 918.146 131.473 904.88 133.354C878.347 137.116 841.264 143.152 799.06 152.247C714.751 170.414 609.965 200.796 528.037 249.667C446.109 200.796 341.323 170.414 257.014 152.247C214.81 143.152 177.727 137.116 151.194 133.354C137.927 131.473 127.298 130.16 119.984 129.317C116.328 128.896 113.5 128.592 111.586 128.394C111.157 128.349 110.773 128.31 110.437 128.276L528.037 -74.2547L945.637 128.276ZM944.591 129.388C945.336 129.311 945.942 129.25 946.404 129.204C946.372 129.248 946.34 129.294 946.305 129.342C945.817 130.024 945.09 131.038 944.134 132.365C942.222 135.02 939.397 138.925 935.743 143.931C928.434 153.943 917.811 168.355 904.551 185.956C878.03 221.157 840.964 269.111 798.78 320.121C780.641 342.055 761.556 364.554 741.958 386.846L528.987 250.265C610.71 201.63 715.147 171.352 799.271 153.224C841.446 144.136 878.505 138.104 905.02 134.344C918.277 132.464 928.898 131.152 936.204 130.311C939.857 129.89 942.681 129.586 944.591 129.388ZM742.809 387.392C762.381 365.128 781.438 342.661 799.55 320.758C841.746 269.733 878.822 221.767 905.349 186.557C918.613 168.952 929.24 154.536 936.55 144.521C940.206 139.513 943.032 135.606 944.945 132.95C945.902 131.622 946.63 130.607 947.119 129.924L947.209 129.797L1050.28 584.578L742.809 387.392ZM528.956 251.433L741.29 387.606C715.517 416.897 688.866 445.817 662.314 472.615C647.05 488.021 631.821 502.724 616.814 516.392L528.956 251.433ZM528.537 253.346L616.005 517.129C585.385 544.955 555.702 568.443 528.537 584.775V253.346ZM527.537 253.346V584.775C500.372 568.443 470.689 544.955 440.069 517.129L527.537 253.346ZM527.118 251.433L439.259 516.392C424.252 502.724 409.024 488.021 393.759 472.615C367.208 445.817 340.556 416.897 314.784 387.606L527.118 251.433ZM313.932 388.152C339.747 417.494 366.447 446.469 393.049 473.319C408.432 488.845 423.784 503.663 438.915 517.431L416.458 585.158H6.74274L313.932 388.152ZM256.523 320.758C274.636 342.661 293.693 365.128 313.264 387.392L5.79424 584.578L108.865 129.798C108.894 129.838 108.924 129.881 108.955 129.924C109.444 130.607 110.172 131.622 111.128 132.95C113.041 135.606 115.868 139.513 119.523 144.521C126.834 154.536 137.461 168.952 150.724 186.557C177.251 221.767 214.327 269.733 256.523 320.758ZM527.086 250.265L314.116 386.846C294.517 364.554 275.433 342.055 257.294 320.121C215.11 269.111 178.044 221.157 151.523 185.956C138.263 168.355 127.639 153.943 120.331 143.931C116.677 138.925 113.852 135.02 111.94 132.365C110.984 131.038 110.257 130.024 109.768 129.342C109.734 129.294 109.701 129.248 109.669 129.204C110.131 129.25 110.738 129.311 111.483 129.388C113.393 129.586 116.217 129.89 119.87 130.311C127.176 131.152 137.796 132.464 151.053 134.344C177.568 138.104 214.627 144.136 256.803 153.224C340.927 171.352 445.363 201.63 527.086 250.265Z" stroke="#14222B" stroke-linejoin="round" shape-rendering="crispEdges"/>
</g>
<defs>
<filter id="filter0_d_4140_78" x="0.0368652" y="-75.8104" width="1068" height="1049" filterUnits="userSpaceOnUse" color-interpolation-filters="sRGB">
<feFlood flood-opacity="0" result="BackgroundImageFix"/>
<feColorMatrix in="SourceAlpha" type="matrix" values="0 0 0 0 0 0 0 0 0 0 0 0 0 0 0 0 0 0 127 0" result="hardAlpha"/>
<feOffset dx="6" dy="10"/>
<feGaussianBlur stdDeviation="5.5"/>
<feComposite in2="hardAlpha" operator="out"/>
<feColorMatrix type="matrix" values="0 0 0 0 0 0 0 0 0 0 0 0 0 0 0 0 0 0 0.25 0"/>
<feBlend mode="normal" in2="BackgroundImageFix" result="effect1_dropShadow_4140_78"/>
<feBlend mode="normal" in="SourceGraphic" in2="effect1_dropShadow_4140_78" result="shape"/>
</filter>
</defs>
</svg>
