<svg width="133" height="131" viewBox="0 0 133 131" fill="none" xmlns="http://www.w3.org/2000/svg">
<g filter="url(#filter0_d_4139_62)">
<path d="M38.1236 50.4465C45.3206 58.5997 53.1356 66.4364 59.689 70.5984M61.311 70.5984C67.8644 66.4364 75.6794 58.5997 82.8763 50.4465M16.9332 22.6882C21.8074 23.2362 44.5585 26.1993 60.0177 35.2153M60.9823 35.2153C76.4415 26.1993 99.1925 23.2362 104.067 22.6882M103.23 22.2823C102.497 22.3704 101.551 22.4915 100.427 22.6509C97.6035 23.0514 93.6575 23.6937 89.1664 24.6617C80.282 26.5764 69.2221 29.7739 60.5 34.9186C51.7779 29.7739 40.718 26.5764 31.8336 24.6617C27.3425 23.6937 23.3965 23.0514 20.5727 22.6509C19.4489 22.4915 18.5025 22.3704 17.77 22.2823L60.5 1.55573L103.23 22.2823ZM72.9949 71.5984L114.966 71.5984L85.3829 108.963L72.9949 71.5984ZM71.9413 71.5984L83.4502 106.312L61.4097 71.5984H71.9413ZM62.2293 70.5984C64.5915 69.0325 67.097 67.0246 69.6627 64.7256L71.6098 70.5984H62.2293ZM114.294 70.5984L72.6633 70.5984L70.473 63.9919C72.0169 62.5792 73.5792 61.0677 75.1423 59.4899C77.8852 56.721 80.6369 53.7408 83.3022 50.7196L114.294 70.5984ZM74.4318 58.7861C72.9875 60.2441 71.5482 61.6405 70.1279 62.9509L61.4192 36.6836L82.4505 50.1733C79.8277 53.1429 77.1244 56.0681 74.4318 58.7861ZM83.1187 49.4139L61.4555 35.5189C69.9689 30.6077 80.6801 27.5136 89.3771 25.6392C93.8402 24.6773 97.7621 24.0389 100.568 23.641C101.97 23.4421 103.093 23.3033 103.865 23.2144C103.893 23.2112 103.921 23.208 103.948 23.2049C103.793 23.4192 103.611 23.6692 103.404 23.9525C102.63 25.0135 101.504 26.5413 100.098 28.4073C97.2866 32.1397 93.3574 37.2236 88.8864 42.631C87.042 44.8617 85.1059 47.1467 83.1187 49.4139ZM83.9699 49.9598C85.9301 47.7209 87.8387 45.4674 89.6571 43.2682C94.1403 37.8462 98.079 32.7497 100.897 29.009C102.306 27.1385 103.435 25.6066 104.212 24.5421C104.423 24.2532 104.608 23.9988 104.765 23.7814L115.243 70.0185L83.9699 49.9598ZM31.6229 25.6392C40.3199 27.5136 51.0311 30.6077 59.5445 35.5189L37.8813 49.4139C35.8941 47.1467 33.958 44.8617 32.1136 42.631C27.6426 37.2237 23.7134 32.1397 20.9019 28.4073C19.4962 26.5413 18.3702 25.0135 17.5958 23.9525C17.3891 23.6692 17.2074 23.4192 17.0521 23.2049C17.0792 23.208 17.1067 23.2112 17.1347 23.2144C17.9065 23.3033 19.0297 23.4421 20.4323 23.641C23.2379 24.0389 27.1598 24.6773 31.6229 25.6392ZM31.3429 43.2682C33.1613 45.4674 35.0699 47.7209 37.0301 49.9599L5.75736 70.0186L16.2349 23.7814C16.3924 23.9988 16.5773 24.2533 16.7881 24.5421C17.5651 25.6066 18.6941 27.1385 20.1031 29.009C22.921 32.7497 26.8597 37.8462 31.3429 43.2682ZM60 109.5L36.7099 109.5L60 72.8187V81.6571L60 99.4563V101.7L60 107.262V107.773V109.303V109.424V109.5ZM61 81.6571V72.8187L84.2901 109.5L61 109.5V109.424V109.303V107.773V107.262L61 101.7V99.4563L61 81.6571ZM59.5903 71.5984L37.5498 106.312L49.0587 71.5984H59.5903ZM58.7707 70.5984H49.3902L51.3373 64.7256C53.903 67.0246 56.4085 69.0325 58.7707 70.5984ZM50.527 63.9919L48.3367 70.5984L6.70564 70.5984L37.6978 50.7196C40.3631 53.7408 43.1148 56.721 45.8578 59.4899C47.4208 61.0677 48.9831 62.5792 50.527 63.9919ZM50.8721 62.9509C49.4518 61.6405 48.0125 60.2441 46.5682 58.7861C43.8757 56.0681 41.1723 53.1429 38.5495 50.1733L59.5808 36.6836L50.8721 62.9509ZM60 70.2035C57.3985 68.5565 54.5852 66.3144 51.6808 63.6894L60 38.597L60 70.2035ZM61 70.2035L61 38.597L69.3192 63.6894C66.4148 66.3144 63.6015 68.5565 61 70.2035ZM6.03362 71.5984L48.0051 71.5984L35.6171 108.963L6.03362 71.5984Z" stroke="#CFCFCF" stroke-linejoin="round" shape-rendering="crispEdges"/>
</g>
<defs>
<filter id="filter0_d_4139_62" x="0" y="1.52588e-05" width="133" height="131" filterUnits="userSpaceOnUse" color-interpolation-filters="sRGB">
<feFlood flood-opacity="0" result="BackgroundImageFix"/>
<feColorMatrix in="SourceAlpha" type="matrix" values="0 0 0 0 0 0 0 0 0 0 0 0 0 0 0 0 0 0 127 0" result="hardAlpha"/>
<feOffset dx="6" dy="10"/>
<feGaussianBlur stdDeviation="5.5"/>
<feComposite in2="hardAlpha" operator="out"/>
<feColorMatrix type="matrix" values="0 0 0 0 0 0 0 0 0 0 0 0 0 0 0 0 0 0 0.25 0"/>
<feBlend mode="normal" in2="BackgroundImageFix" result="effect1_dropShadow_4139_62"/>
<feBlend mode="normal" in="SourceGraphic" in2="effect1_dropShadow_4139_62" result="shape"/>
</filter>
</defs>
</svg>
